# xmcd
#
# Track frame offsets: 
#        150
#        29155
#        53964
#        77095
#        103230
#        137301
#        161344
#        183966
#        209840
#        232997
#
# Disc length: 3442 seconds
#
# Revision: 0
# Processed by: cddbd v1.5.2PL0 Copyright (c) Steve Scherf et al.
# Submitted via: ExactAudioCopy v1.0b3
#
DISCID=860d700a
DTITLE=Truong Vu - Ti Ngo Cua Toi
DYEAR=1998
DGENRE=
TTITLE0=Ti Ngo cua toi (Hoa muoi gio loi hen)
TTITLE1=Long Me 2
TTITLE2=Doan buon dem mua
TTITLE3=Thoi doi
TTITLE4=Han Mac Tu
TTITLE5=Vi trong nghich canh
TTITLE6=Trong tam mat doi
TTITLE7=Noi buon sa mac
TTITLE8=Thu cho vo hien
TTITLE9=Mot lan cuoi
EXTD=
EXTT0=
EXTT1=
EXTT2=
EXTT3=
EXTT4=
EXTT5=
EXTT6=
EXTT7=
EXTT8=
EXTT9=
PLAYORDER=
